<svg width="177" height="52" viewBox="0 0 177 52" fill="none" xmlns="http://www.w3.org/2000/svg">
<path d="M78.872 22.12C78.44 21.288 77.84 20.664 77.072 20.248C76.304 19.816 75.416 19.6 74.408 19.6C73.304 19.6 72.32 19.848 71.456 20.344C70.592 20.84 69.912 21.544 69.416 22.456C68.936 23.368 68.696 24.424 68.696 25.624C68.696 26.824 68.936 27.888 69.416 28.816C69.912 29.728 70.592 30.432 71.456 30.928C72.32 31.424 73.304 31.672 74.408 31.672C75.896 31.672 77.104 31.256 78.032 30.424C78.96 29.592 79.528 28.464 79.736 27.04H73.472V24.856H82.664V26.992C82.488 28.288 82.024 29.48 81.272 30.568C80.536 31.656 79.568 32.528 78.368 33.184C77.184 33.824 75.864 34.144 74.408 34.144C72.84 34.144 71.408 33.784 70.112 33.064C68.816 32.328 67.784 31.312 67.016 30.016C66.264 28.72 65.888 27.256 65.888 25.624C65.888 23.992 66.264 22.528 67.016 21.232C67.784 19.936 68.816 18.928 70.112 18.208C71.424 17.472 72.856 17.104 74.408 17.104C76.184 17.104 77.76 17.544 79.136 18.424C80.528 19.288 81.536 20.52 82.16 22.12H78.872ZM97.3385 20.776V34H94.6025V32.44C94.1705 32.984 93.6025 33.416 92.8985 33.736C92.2105 34.04 91.4745 34.192 90.6905 34.192C89.6505 34.192 88.7145 33.976 87.8825 33.544C87.0665 33.112 86.4185 32.472 85.9385 31.624C85.4745 30.776 85.2425 29.752 85.2425 28.552V20.776H87.9545V28.144C87.9545 29.328 88.2505 30.24 88.8425 30.88C89.4345 31.504 90.2425 31.816 91.2665 31.816C92.2905 31.816 93.0985 31.504 93.6905 30.88C94.2985 30.24 94.6025 29.328 94.6025 28.144V20.776H97.3385ZM100.036 27.328C100.036 26 100.308 24.824 100.852 23.8C101.412 22.776 102.164 21.984 103.108 21.424C104.068 20.848 105.124 20.56 106.276 20.56C107.316 20.56 108.22 20.768 108.988 21.184C109.772 21.584 110.396 22.088 110.86 22.696V20.776H113.62V34H110.86V32.032C110.396 32.656 109.764 33.176 108.964 33.592C108.164 34.008 107.252 34.216 106.228 34.216C105.092 34.216 104.052 33.928 103.108 33.352C102.164 32.76 101.412 31.944 100.852 30.904C100.308 29.848 100.036 28.656 100.036 27.328ZM110.86 27.376C110.86 26.464 110.668 25.672 110.284 25C109.916 24.328 109.428 23.816 108.82 23.464C108.212 23.112 107.556 22.936 106.852 22.936C106.148 22.936 105.492 23.112 104.884 23.464C104.276 23.8 103.78 24.304 103.396 24.976C103.028 25.632 102.844 26.416 102.844 27.328C102.844 28.24 103.028 29.04 103.396 29.728C103.78 30.416 104.276 30.944 104.884 31.312C105.508 31.664 106.164 31.84 106.852 31.84C107.556 31.84 108.212 31.664 108.82 31.312C109.428 30.96 109.916 30.448 110.284 29.776C110.668 29.088 110.86 28.288 110.86 27.376ZM119.95 22.696C120.35 22.024 120.878 21.504 121.534 21.136C122.206 20.752 122.998 20.56 123.91 20.56V23.392H123.214C122.142 23.392 121.326 23.664 120.766 24.208C120.222 24.752 119.95 25.696 119.95 27.04V34H117.214V20.776H119.95V22.696ZM125.513 27.328C125.513 26 125.785 24.824 126.329 23.8C126.889 22.776 127.641 21.984 128.585 21.424C129.545 20.848 130.609 20.56 131.777 20.56C132.641 20.56 133.489 20.752 134.321 21.136C135.169 21.504 135.841 22 136.337 22.624V16.24H139.097V34H136.337V32.008C135.889 32.648 135.265 33.176 134.465 33.592C133.681 34.008 132.777 34.216 131.753 34.216C130.601 34.216 129.545 33.928 128.585 33.352C127.641 32.76 126.889 31.944 126.329 30.904C125.785 29.848 125.513 28.656 125.513 27.328ZM136.337 27.376C136.337 26.464 136.145 25.672 135.761 25C135.393 24.328 134.905 23.816 134.297 23.464C133.689 23.112 133.033 22.936 132.329 22.936C131.625 22.936 130.969 23.112 130.361 23.464C129.753 23.8 129.257 24.304 128.873 24.976C128.505 25.632 128.321 26.416 128.321 27.328C128.321 28.24 128.505 29.04 128.873 29.728C129.257 30.416 129.753 30.944 130.361 31.312C130.985 31.664 131.641 31.84 132.329 31.84C133.033 31.84 133.689 31.664 134.297 31.312C134.905 30.96 135.393 30.448 135.761 29.776C136.145 29.088 136.337 28.288 136.337 27.376ZM141.779 27.328C141.779 26 142.051 24.824 142.595 23.8C143.155 22.776 143.907 21.984 144.851 21.424C145.811 20.848 146.867 20.56 148.019 20.56C149.059 20.56 149.963 20.768 150.731 21.184C151.515 21.584 152.139 22.088 152.603 22.696V20.776H155.363V34H152.603V32.032C152.139 32.656 151.507 33.176 150.707 33.592C149.907 34.008 148.995 34.216 147.971 34.216C146.835 34.216 145.795 33.928 144.851 33.352C143.907 32.76 143.155 31.944 142.595 30.904C142.051 29.848 141.779 28.656 141.779 27.328ZM152.603 27.376C152.603 26.464 152.411 25.672 152.027 25C151.659 24.328 151.171 23.816 150.563 23.464C149.955 23.112 149.299 22.936 148.595 22.936C147.891 22.936 147.235 23.112 146.627 23.464C146.019 23.8 145.523 24.304 145.139 24.976C144.771 25.632 144.587 26.416 144.587 27.328C144.587 28.24 144.771 29.04 145.139 29.728C145.523 30.416 146.019 30.944 146.627 31.312C147.251 31.664 147.907 31.84 148.595 31.84C149.299 31.84 149.955 31.664 150.563 31.312C151.171 30.96 151.659 30.448 152.027 29.776C152.411 29.088 152.603 28.288 152.603 27.376ZM164.188 27.4L170.284 34H166.588L161.692 28.312V34H158.956V16.24H161.692V26.56L166.492 20.776H170.284L164.188 27.4ZM173.637 19.024C173.141 19.024 172.725 18.856 172.389 18.52C172.053 18.184 171.885 17.768 171.885 17.272C171.885 16.776 172.053 16.36 172.389 16.024C172.725 15.688 173.141 15.52 173.637 15.52C174.117 15.52 174.525 15.688 174.861 16.024C175.197 16.36 175.365 16.776 175.365 17.272C175.365 17.768 175.197 18.184 174.861 18.52C174.525 18.856 174.117 19.024 173.637 19.024ZM174.981 20.776V34H172.245V20.776H174.981Z" fill="#FA7275"/>
<rect opacity="0.2" width="48" height="48" rx="24" fill="#FA7275"/>
<rect x="21" y="20" width="32" height="32" rx="16" fill="#FA7275"/>
</svg>
